<svg width="511" height="258" viewBox="0 0 511 258" fill="none" xmlns="http://www.w3.org/2000/svg">
<path d="M474 181.737V219C474 219 456.022 217.959 458.18 213.468L458.18 181.737H474ZM458.179 157H474V173.492H458.179V157Z" fill="white"/>
<path d="M434.839 143H451V216.824C442.71 218.379 436.623 219 430.013 219C410.284 218.999 400 210.198 400 193.316C400 177.056 410.914 166.493 427.808 166.493C430.432 166.493 432.426 166.7 434.839 167.321V143ZM434.839 180.16C432.951 179.539 431.376 179.332 429.383 179.332C421.198 179.332 416.475 184.303 416.475 193.002C416.475 201.495 420.988 206.155 429.278 206.155C431.061 206.155 432.531 206.051 434.839 205.742V180.16Z" fill="white"/>
<path d="M378.448 164H392V219C384 219 376.889 219 370.278 219C350.55 218.999 341 210.223 341 193.388C341 177.174 351.914 166.641 368.808 166.641C371.432 166.641 378.448 168.468 378.448 164ZM375.839 180.269C373.951 179.65 372.376 179.444 370.383 179.444C362.198 179.444 357.475 184.4 357.475 193.075C357.475 201.544 361.988 206.191 370.278 206.191C372.061 206.191 373.531 206.087 375.839 205.779V180.269Z" fill="white"/>
<path d="M321 198C325.418 198 329 201.582 329 206C329 210.418 325.418 214 321 214C316.582 214 313 210.418 313 206C313 201.582 316.582 198 321 198Z" fill="white" stroke="white" stroke-width="8" stroke-linejoin="round"/>
<path d="M20.3906 133V65.3594H49.3125C56.1562 65.3594 62 66.625 66.8438 69.1562C71.7188 71.6875 75.4375 75.4219 78 80.3594C80.5938 85.2969 81.8906 91.375 81.8906 98.5938V98.6875C81.8906 105.906 80.5938 112.078 78 117.203C75.4375 122.328 71.7188 126.25 66.8438 128.969C62 131.656 56.1562 133 49.3125 133H20.3906ZM40.2656 117.203H46.5C49.8125 117.203 52.5938 116.531 54.8438 115.188C57.0938 113.812 58.7812 111.766 59.9062 109.047C61.0625 106.297 61.6406 102.844 61.6406 98.6875V98.5938C61.6406 94.8125 61.0312 91.625 59.8125 89.0312C58.625 86.4375 56.8906 84.4844 54.6094 83.1719C52.3594 81.8281 49.6562 81.1562 46.5 81.1562H40.2656V117.203ZM89.6719 133V65.3594H109.547V133H89.6719ZM146.203 134.219C140.359 134.219 135.297 133.406 131.016 131.781C126.766 130.156 123.438 127.797 121.031 124.703C118.656 121.578 117.344 117.797 117.094 113.359L117.047 112.469H135.328L135.422 112.891C135.703 114.109 136.359 115.172 137.391 116.078C138.422 116.984 139.719 117.703 141.281 118.234C142.844 118.734 144.562 118.984 146.438 118.984C148.438 118.984 150.141 118.734 151.547 118.234C152.984 117.734 154.094 117.047 154.875 116.172C155.656 115.297 156.047 114.297 156.047 113.172V113.125C156.047 111.531 155.281 110.328 153.75 109.516C152.219 108.703 149.578 107.953 145.828 107.266L139.031 106.047C132.312 104.859 127.156 102.594 123.562 99.25C120 95.9062 118.219 91.6094 118.219 86.3594V86.3125C118.219 81.7812 119.406 77.8594 121.781 74.5469C124.188 71.2344 127.484 68.6719 131.672 66.8594C135.859 65.0469 140.625 64.1406 145.969 64.1406C152 64.1406 157.078 64.9844 161.203 66.6719C165.328 68.3594 168.484 70.7656 170.672 73.8906C172.859 76.9844 174.047 80.6406 174.234 84.8594L174.281 85.8906H156L155.953 85.4219C155.828 84.1719 155.328 83.1094 154.453 82.2344C153.609 81.3281 152.469 80.625 151.031 80.125C149.625 79.625 148.016 79.375 146.203 79.375C144.391 79.375 142.859 79.625 141.609 80.125C140.391 80.5938 139.469 81.25 138.844 82.0938C138.219 82.9062 137.906 83.8281 137.906 84.8594V84.9062C137.906 86.4375 138.672 87.625 140.203 88.4688C141.734 89.2812 144.188 90 147.562 90.625L154.359 91.8438C159.203 92.7188 163.203 93.9844 166.359 95.6406C169.516 97.2969 171.859 99.4219 173.391 102.016C174.953 104.578 175.734 107.688 175.734 111.344V111.391C175.734 116.047 174.562 120.094 172.219 123.531C169.906 126.938 166.547 129.578 162.141 131.453C157.734 133.297 152.422 134.219 146.203 134.219ZM215.016 134.219C208.109 134.219 202.141 132.844 197.109 130.094C192.109 127.344 188.25 123.359 185.531 118.141C182.844 112.922 181.5 106.594 181.5 99.1562V99.1094C181.5 91.6719 182.859 85.3594 185.578 80.1719C188.297 74.9531 192.156 70.9844 197.156 68.2656C202.188 65.5156 208.141 64.1406 215.016 64.1406C221.297 64.1406 226.781 65.375 231.469 67.8438C236.188 70.3125 239.859 73.6719 242.484 77.9219C245.109 82.1406 246.422 86.9062 246.422 92.2188V92.6406H227.391L227.344 92.0781C227.156 89.8281 226.547 87.8281 225.516 86.0781C224.516 84.2969 223.125 82.9062 221.344 81.9062C219.594 80.875 217.484 80.3594 215.016 80.3594C212.297 80.3594 209.938 81.0938 207.938 82.5625C205.969 84.0312 204.438 86.1562 203.344 88.9375C202.281 91.7188 201.75 95.0938 201.75 99.0625V99.1094C201.75 103.109 202.281 106.531 203.344 109.375C204.438 112.188 205.984 114.328 207.984 115.797C209.984 117.266 212.344 118 215.062 118C217.344 118 219.375 117.516 221.156 116.547C222.938 115.578 224.375 114.219 225.469 112.469C226.562 110.688 227.219 108.609 227.438 106.234L227.484 105.719H246.516V106.234C246.516 111.516 245.172 116.266 242.484 120.484C239.828 124.703 236.141 128.047 231.422 130.516C226.703 132.984 221.234 134.219 215.016 134.219ZM286.406 134.219C279.438 134.219 273.406 132.812 268.312 130C263.219 127.156 259.281 123.109 256.5 117.859C253.75 112.609 252.375 106.391 252.375 99.2031V99.1094C252.375 91.9219 253.766 85.7188 256.547 80.5C259.328 75.25 263.266 71.2188 268.359 68.4062C273.453 65.5625 279.469 64.1406 286.406 64.1406C293.406 64.1406 299.453 65.5625 304.547 68.4062C309.672 71.25 313.609 75.2812 316.359 80.5C319.141 85.7188 320.531 91.9219 320.531 99.1094V99.2031C320.531 106.391 319.141 112.609 316.359 117.859C313.609 123.078 309.688 127.109 304.594 129.953C299.5 132.797 293.438 134.219 286.406 134.219ZM286.406 118C289.281 118 291.75 117.234 293.812 115.703C295.875 114.172 297.469 112 298.594 109.188C299.719 106.375 300.281 103.047 300.281 99.2031V99.1094C300.281 95.2344 299.703 91.9062 298.547 89.125C297.422 86.3125 295.812 84.1562 293.719 82.6562C291.656 81.125 289.219 80.3594 286.406 80.3594C283.656 80.3594 281.234 81.1094 279.141 82.6094C277.078 84.1094 275.469 86.2656 274.312 89.0781C273.188 91.8594 272.625 95.2031 272.625 99.1094V99.2031C272.625 103.078 273.188 106.422 274.312 109.234C275.469 112.047 277.078 114.219 279.141 115.75C281.203 117.25 283.625 118 286.406 118ZM328.266 133V65.3594H358.734C364.547 65.3594 369.438 66.25 373.406 68.0312C377.406 69.8125 380.438 72.4219 382.5 75.8594C384.562 79.2969 385.594 83.5156 385.594 88.5156V88.6094C385.594 92.8281 384.594 96.6875 382.594 100.188C380.625 103.688 378 106.234 374.719 107.828L387.562 133H365.344L354.656 110.781C354.531 110.781 354.391 110.781 354.234 110.781C354.078 110.781 353.922 110.781 353.766 110.781H348.141V133H328.266ZM348.141 96.7656H356.438C359.125 96.7656 361.281 96 362.906 94.4688C364.531 92.9375 365.344 90.9375 365.344 88.4688V88.375C365.344 85.9062 364.516 83.9062 362.859 82.375C361.203 80.8125 359.062 80.0312 356.438 80.0312H348.141V96.7656ZM393.703 133V65.3594H422.625C429.469 65.3594 435.312 66.625 440.156 69.1562C445.031 71.6875 448.75 75.4219 451.312 80.3594C453.906 85.2969 455.203 91.375 455.203 98.5938V98.6875C455.203 105.906 453.906 112.078 451.312 117.203C448.75 122.328 445.031 126.25 440.156 128.969C435.312 131.656 429.469 133 422.625 133H393.703ZM413.578 117.203H419.812C423.125 117.203 425.906 116.531 428.156 115.188C430.406 113.812 432.094 111.766 433.219 109.047C434.375 106.297 434.953 102.844 434.953 98.6875V98.5938C434.953 94.8125 434.344 91.625 433.125 89.0312C431.938 86.4375 430.203 84.4844 427.922 83.1719C425.672 81.8281 422.969 81.1562 419.812 81.1562H413.578V117.203Z" fill="#007AFF"/>
</svg>
